<svg xmlns="http://www.w3.org/2000/svg" width="49.156" height="35.927" viewBox="0 0 49.156 35.927">
  <g id="menu-svgrepo-com" transform="translate(11.487 -56.107)">
    <g id="Menu" transform="translate(-11 56.594)">
      <path id="Path_2" data-name="Path 2" d="M1.506,62.946h45.17c.831,0,1.506-.975,1.506-2.176s-.675-2.176-1.506-2.176H1.506C.675,58.594,0,59.569,0,60.77S.675,62.946,1.506,62.946Z" transform="translate(0 -58.594)" fill="#fff" stroke="#000" stroke-width="0.974"/>
      <path id="Path_3" data-name="Path 3" d="M46.676,175.782H1.506c-.831,0-1.506,1.05-1.506,2.345s.675,2.344,1.506,2.344h45.17c.831,0,1.506-1.05,1.506-2.344S47.507,175.782,46.676,175.782Z" transform="translate(0 -160.725)" fill="#fff" stroke="#000" stroke-width="0.974"/>
      <path id="Path_4" data-name="Path 4" d="M46.676,292.97H1.506c-.831,0-1.506,1.084-1.506,2.42s.675,2.42,1.506,2.42h45.17c.831,0,1.506-1.084,1.506-2.42S47.507,292.97,46.676,292.97Z" transform="translate(0 -262.856)" fill="#fff" stroke="#000" stroke-width="0.974"/>
    </g>
  </g>
</svg>
