<svg xmlns="http://www.w3.org/2000/svg" width="368" height="119" viewBox="0 0 368 119">
  <defs>
    <style>
      .cls-1 {
        fill: #fff;
        opacity: 0.799;
      }

      .cls-2 {
        fill: #e8715b;
      }

      .cls-3 {
        fill: #072a55;
      }
    </style>
  </defs>
  <g id="Logo" transform="translate(-42 -32)">
    <path id="Path_98" data-name="Path 98" class="cls-1" d="M0,0H368V119H0Z" transform="translate(42 32)"/>
    <g id="logo-2" data-name="logo" transform="translate(56.423 52.342)">
      <g id="Group_27" data-name="Group 27" transform="translate(0)">
        <path id="Path_80" data-name="Path 80" class="cls-2" d="M490.082,1702.632c-.541.06-1.085.1-1.618.114a1.224,1.224,0,0,0,.03,2.443h.031c.591-.017,1.193-.06,1.792-.126a1.2,1.2,0,0,0,1.015-1.341,1.162,1.162,0,0,0-1.251-1.089Z" transform="translate(-467.153 -1627.025)"/>
        <path id="Path_81" data-name="Path 81" class="cls-2" d="M352.877,1690.441a1.135,1.135,0,0,0-1.388.878,1.231,1.231,0,0,0,.819,1.488c.579.16,1.174.294,1.77.4a1.081,1.081,0,0,0,.188.017,1.175,1.175,0,0,0,1.134-1.122,1.208,1.208,0,0,0-.949-1.3C353.921,1690.7,353.391,1690.583,352.877,1690.441Z" transform="translate(-336.894 -1615.344)"/>
        <path id="Path_82" data-name="Path 82" class="cls-2" d="M625.743,1672.566c-.516.191-1.041.366-1.561.519a1.234,1.234,0,0,0-.8,1.5,1.133,1.133,0,0,0,1.4.855c.567-.167,1.14-.357,1.7-.566a1.245,1.245,0,0,0,.7-1.554A1.122,1.122,0,0,0,625.743,1672.566Z" transform="translate(-597.523 -1598.236)"/>
        <path id="Path_83" data-name="Path 83" class="cls-2" d="M225.876,1636.817a1.275,1.275,0,0,0,.354,1.685c.509.345,1.04.669,1.579.961a1.1,1.1,0,0,0,1.531-.538,1.264,1.264,0,0,0-.5-1.641c-.474-.258-.942-.542-1.391-.846A1.1,1.1,0,0,0,225.876,1636.817Z" transform="translate(-216.351 -1563.595)"/>
        <path id="Path_84" data-name="Path 84" class="cls-2" d="M753.23,1614.955c-.473.3-.958.583-1.441.849a1.265,1.265,0,0,0-.494,1.645,1.1,1.1,0,0,0,1.534.529c.521-.287,1.044-.594,1.554-.915a1.271,1.271,0,0,0,.406-1.671A1.1,1.1,0,0,0,753.23,1614.955Z" transform="translate(-720.053 -1543.087)"/>
        <path id="Path_85" data-name="Path 85" class="cls-2" d="M124.324,1549.279a1.086,1.086,0,0,0,1.611,0,1.284,1.284,0,0,0,0-1.727c-.376-.4-.741-.829-1.084-1.269a1.088,1.088,0,0,0-1.605-.153,1.283,1.283,0,0,0-.143,1.721C123.488,1548.344,123.9,1548.826,124.324,1549.279Z" transform="translate(-117.747 -1477.204)"/>
        <path id="Path_86" data-name="Path 86" class="cls-2" d="M868.845,1535.4c-.421.383-.853.757-1.285,1.112a1.281,1.281,0,0,0-.212,1.712,1.089,1.089,0,0,0,1.6.227c.463-.38.925-.78,1.374-1.189a1.283,1.283,0,0,0,.131-1.722A1.087,1.087,0,0,0,868.845,1535.4Z" transform="translate(-831.195 -1466.944)"/>
        <path id="Path_87" data-name="Path 87" class="cls-2" d="M51.41,1432.816a1.1,1.1,0,0,0,1.546.487,1.268,1.268,0,0,0,.454-1.657c-.255-.5-.5-1.025-.718-1.554a1.11,1.11,0,0,0-1.505-.617,1.258,1.258,0,0,0-.575,1.614C50.857,1431.676,51.126,1432.257,51.41,1432.816Z" transform="translate(-48.42 -1365.901)"/>
        <path id="Path_88" data-name="Path 88" class="cls-2" d="M13.062,1300.89c-.132-.558-.248-1.133-.345-1.708a1.148,1.148,0,0,0-1.324-.984,1.217,1.217,0,0,0-.918,1.419c.106.63.233,1.259.378,1.871a1.136,1.136,0,0,0,1.384.885A1.23,1.23,0,0,0,13.062,1300.89Z" transform="translate(-10.024 -1240.536)"/>
        <path id="Path_89" data-name="Path 89" class="cls-2" d="M1.156,1165.534h.039a1.19,1.19,0,0,0,1.1-1.262q-.028-.88-.007-1.761a1.187,1.187,0,0,0-1.111-1.251,1.178,1.178,0,0,0-1.167,1.191q-.022.952.007,1.9A1.18,1.18,0,0,0,1.156,1165.534Z" transform="translate(-0.001 -1109.697)"/>
        <path id="Path_90" data-name="Path 90" class="cls-2" d="M9.689,1029.036a1.1,1.1,0,0,0,.172.014,1.168,1.168,0,0,0,1.125-1.038c.082-.577.179-1.163.289-1.743a1.222,1.222,0,0,0-.889-1.441,1.144,1.144,0,0,0-1.344.953c-.118.62-.222,1.247-.309,1.864A1.213,1.213,0,0,0,9.689,1029.036Z" transform="translate(-8.36 -979.301)"/>
        <path id="Path_91" data-name="Path 91" class="cls-2" d="M41.359,897.01a1.068,1.068,0,0,0,.87-.072,1.2,1.2,0,0,0,.567-.711c.17-.557.355-1.12.55-1.673a1.25,1.25,0,0,0-.661-1.575,1.118,1.118,0,0,0-1.47.709c-.208.589-.405,1.188-.586,1.782A1.242,1.242,0,0,0,41.359,897.01Z" transform="translate(-38.891 -853.255)"/>
        <path id="Path_92" data-name="Path 92" class="cls-2" d="M93.8,772.481a1.07,1.07,0,0,0,.87.072,1.165,1.165,0,0,0,.662-.608c.249-.525.512-1.051.784-1.565a1.27,1.27,0,0,0-.43-1.665,1.1,1.1,0,0,0-1.553.461c-.288.546-.569,1.105-.833,1.663A1.265,1.265,0,0,0,93.8,772.481Z" transform="translate(-89.319 -734.433)"/>
        <path id="Path_93" data-name="Path 93" class="cls-2" d="M164.974,658.2a1.091,1.091,0,0,0,1.59-.281c.319-.477.654-.954,1-1.42a1.281,1.281,0,0,0-.19-1.715,1.089,1.089,0,0,0-1.6.2c-.363.494-.719,1-1.058,1.508A1.279,1.279,0,0,0,164.974,658.2Z" transform="translate(-157.684 -625.464)"/>
        <path id="Path_94" data-name="Path 94" class="cls-2" d="M1263.378,703.154a1.209,1.209,0,0,0-.533.761l2.2-.056a1.825,1.825,0,0,0-.11-.254A1.1,1.1,0,0,0,1263.378,703.154Z" transform="translate(-1210.534 -671.779)"/>
        <path id="Path_95" data-name="Path 95" class="cls-2" d="M340.217,51.405a22.47,22.47,0,0,0,10.477-2.6l.792-1.09-2.424-.791a20.443,20.443,0,0,1-5.815,1.8,1.266,1.266,0,0,0-.186-.583,7.8,7.8,0,0,0-5.14-3.8c-3.462-.664-6.744,1.4-7.632,2.025A21.818,21.818,0,0,1,325.45,42.7a2.593,2.593,0,0,0,.336-.317,4.62,4.62,0,0,0,.726-3.726,4.3,4.3,0,0,1,.135-1.477l.017-.086a8.136,8.136,0,0,1,.29-.987,6.391,6.391,0,0,0,.466-2.557,5.867,5.867,0,0,0-2.361-3.915c-.809-.743-1.508-1.385-1.6-2.243a17.207,17.207,0,0,1-.031-3.1,1.321,1.321,0,0,0,0-.137c-.06-2.017-1.653-3.343-4.3-3.641q.232-1.076.556-2.113a3.733,3.733,0,0,0,.586.088c1.371,0,2.578-1.316,3.482-2.473a6.042,6.042,0,0,1,2.286-1.6c.158-.078.317-.157.476-.238a4.817,4.817,0,0,0,2.6-2.787,10.841,10.841,0,0,0,.016-3.439,10.459,10.459,0,0,0-.347-1.9,20.6,20.6,0,0,1,8.394-3.281c.006.4.143,1.319-.192,1.615a3.094,3.094,0,0,1-.835.431c-.208.085-.414.17-.612.267a8.75,8.75,0,0,0-2.695,1.833,2.127,2.127,0,0,0-.582,2.363,1.119,1.119,0,0,0,1.33.683,1.219,1.219,0,0,0,.845-1.3l.037-.041a6.863,6.863,0,0,1,2.014-1.32c.152-.075.312-.139.472-.2a4.856,4.856,0,0,0,1.476-.831,3.852,3.852,0,0,0,1.02-3.125V3.039c0-.137,0-.3-.006-.474.255-.01.51-.021.767-.021a20.232,20.232,0,0,1,4.864.6,4.261,4.261,0,0,0-.59,3.321q.012.054.029.106a3.033,3.033,0,0,1,.13.991c-1.006-.081-5.056-.219-5.391,2.684-.008.056-.014.115-.018.176a2.848,2.848,0,0,1-.284,1.343,3.081,3.081,0,0,1-.321.194,2.752,2.752,0,0,0-1.15.986,2.9,2.9,0,0,0-.336,2.756c.688,1.266,2.3,1.2,4.335,1.121,1.645-.066,3.9-.156,4.691.72a1.774,1.774,0,0,1,.349,1.409c-.052.113-.379.3-1.153.265l-.124-.007a16.986,16.986,0,0,1-3.027-.29c-1.9-.623-4.272-1.4-6.763-.712a7.541,7.541,0,0,0-5.193,6.5c-.275,3.033.685,5.122,2.853,6.209l.221.111a6.121,6.121,0,0,0,3.438.926,1.059,1.059,0,0,0,.133-.02,2.973,2.973,0,0,1,2.244.365,1.042,1.042,0,0,1,.235.4,3.632,3.632,0,0,1,.554-.057h.007l12.411-.317h0c.2-.279.4-.565.6-.867s.375-.634.554-.961c.084-.153.167-.305.252-.453a2.414,2.414,0,0,0,.4-1.938,1.727,1.727,0,0,0-1.037-1.094c-.181-.076-.364-.148-.547-.218a3.542,3.542,0,0,1-1.507-.859,2.61,2.61,0,0,1-.56-1.368,3.347,3.347,0,0,0,2.4.52,2.3,2.3,0,0,0,1.818-1.261,2.843,2.843,0,0,0-.308-2.421c-.061-.133-.154-.335-.171-.39a.43.43,0,0,1,.081-.355.315.315,0,0,1,.292-.135,2.079,2.079,0,0,1,1.536.713c.646.956,1.722.573,2.586.265.732-.261,1.734-.619,2.266-.319a1.639,1.639,0,0,1,.608,1.035,24.8,24.8,0,0,1-.578,9.885l1.089-.028.841-1.2.225-.322c.083-.116.167-.23.251-.345.143-.2.287-.4.43-.592,1.5-10.606-3.306-21.095-12.06-26.294A22.663,22.663,0,0,0,324.623,6.3a26.879,26.879,0,0,0-6.841,28.367C321.26,44.729,330.21,51.405,340.217,51.405Z" transform="translate(-303.188 -0.106)"/>
        <path id="Path_96" data-name="Path 96" class="cls-2" d="M827.973,613.307a1.663,1.663,0,0,0-1.47,1.043l-1.011,2.4a1.9,1.9,0,0,0,.012,1.45,1.706,1.706,0,0,0,1.013.96l16.782,5.478-5.934,8.164-5.9-.585a1.6,1.6,0,0,0-1.272.456l-2.547,2.488a1.86,1.86,0,0,0-.49,1.641,1.752,1.752,0,0,0,1.037,1.317l5.786,2.269c-.35.84-.809,1.977-1.148,2.951a1.834,1.834,0,0,0,.524,2,1.567,1.567,0,0,0,1.958.075l2.676-1.94,3.516,4.991a1.629,1.629,0,0,0,1.478.679,1.681,1.681,0,0,0,1.332-.965l1.5-3.285a1.874,1.874,0,0,0,.039-1.454l-2.254-5.756,5.676-8.405,9.91,15.339a1.66,1.66,0,0,0,1.152.742,1.6,1.6,0,0,0,1.29-.4l1.883-1.725a1.844,1.844,0,0,0,.514-1.821l-6.291-23.631,1.729-2.468c.894-1.3,1.753-2.639,2.483-3.859a4.187,4.187,0,0,0-.889-5.359l-.061-.05a3.672,3.672,0,0,0-5.236.561c-.891,1.095-1.845,2.348-2.766,3.634l-1.73,2.469Z" transform="translate(-791.165 -578.332)"/>
      </g>
      <g id="Group_29" data-name="Group 29" transform="translate(85.644 21.712)">
        <g id="Group_28" data-name="Group 28" transform="translate(0 0)">
          <path id="Path_97" data-name="Path 97" class="cls-3" d="M46.147-746.312l1.739,6.684a5.054,5.054,0,0,0,1.315.955,5.217,5.217,0,0,0,2.248.409,5.823,5.823,0,0,0,3.86-1.273,4.5,4.5,0,0,0,1.569-3.638,4.071,4.071,0,0,0-1.018-2.819,10.82,10.82,0,0,0-2.5-2.092q-1.527-.955-3.266-1.864a20.486,20.486,0,0,1-3.266-2.228,11.432,11.432,0,0,1-2.545-3,8.952,8.952,0,0,1-.976-4.365,9.068,9.068,0,0,1,.764-3.865,7.314,7.314,0,0,1,2.078-2.683,8.668,8.668,0,0,1,3.181-1.591,13.706,13.706,0,0,1,3.945-.546,26.3,26.3,0,0,1,4.793.409,15.583,15.583,0,0,1,4.03,1.182q-.042.909-.17,2.092-.085,1.182-.255,2.364-.17,1.137-.382,2.183-.17,1-.339,1.682H59.211l-1.951-6.229a6.288,6.288,0,0,0-1.527-.5,8.941,8.941,0,0,0-2.036-.227,4.619,4.619,0,0,0-3.012,1,3.532,3.532,0,0,0-1.23,2.91,4.48,4.48,0,0,0,1.018,2.956,12.012,12.012,0,0,0,2.545,2.183q1.527,1,3.309,2A18.908,18.908,0,0,1,59.678-752a11.433,11.433,0,0,1,2.545,3,7.953,7.953,0,0,1,1.018,4.183,8.828,8.828,0,0,1-2.884,7.048q-2.842,2.455-8.4,2.455a21.379,21.379,0,0,1-2.757-.182,21.991,21.991,0,0,1-2.587-.5,22.437,22.437,0,0,1-2.206-.682,4.781,4.781,0,0,1-1.4-.773,22.009,22.009,0,0,1,.212-2.228q.17-1.228.339-2.41.212-1.228.424-2.319t.424-1.91Zm38.684,3.865v1.728q.042.727.127,1.546l2.927.455v1.591a8.043,8.043,0,0,1-1.4.546q-.848.273-1.824.546-.933.227-1.866.409-.933.136-1.654.227H79.7a7.066,7.066,0,0,1-.509-2.092q-.085-1.046-.127-2.546H78.85a6.3,6.3,0,0,1-.721,1.773,6.39,6.39,0,0,1-1.315,1.5,6.442,6.442,0,0,1-1.824,1.046,6.553,6.553,0,0,1-2.375.409,7.177,7.177,0,0,1-2.587-.455,6.441,6.441,0,0,1-2.078-1.273,5.9,5.9,0,0,1-1.4-1.955,6.6,6.6,0,0,1-.509-2.637,6.967,6.967,0,0,1,.721-3.365,5.348,5.348,0,0,1,2.248-2.137A12.681,12.681,0,0,1,73-748.4,54.085,54.085,0,0,1,78.935-749a14.866,14.866,0,0,0-.3-5.729,2.625,2.625,0,0,0-2.757-1.819,6.283,6.283,0,0,0-2.418.455l-1.994,5.456H69.6q-.339-.546-.679-1.228-.3-.727-.594-1.5-.254-.818-.467-1.637-.17-.819-.255-1.591a12.421,12.421,0,0,1,4.157-1.864,20.73,20.73,0,0,1,5.387-.682,11.084,11.084,0,0,1,3.945.591A5.423,5.423,0,0,1,83.474-757a5.158,5.158,0,0,1,1.23,2.274,11.279,11.279,0,0,1,.339,2.819q0,2.728-.127,4.956Q84.831-744.766,84.831-742.447Zm-9.544,3.5a3.029,3.029,0,0,0,1.527-.364,3.93,3.93,0,0,0,1.06-.864,3.158,3.158,0,0,0,.679-1.091,8.476,8.476,0,0,0,.382-1.046v-4.547a22.041,22.041,0,0,0-3.266.273,4.631,4.631,0,0,0-1.994.773,2.683,2.683,0,0,0-1.018,1.319,6.173,6.173,0,0,0-.255,1.91,4.2,4.2,0,0,0,.764,2.683A2.564,2.564,0,0,0,75.287-738.946Zm26.85-31.1a11.993,11.993,0,0,1,3.1.364,12.327,12.327,0,0,1,2.121.637,17.874,17.874,0,0,1-.551,3.092q-.424,1.592-.764,2.637H104.6l-1.866-4.32a5.582,5.582,0,0,0-1.866.273,2.18,2.18,0,0,0-1.188.955,6.11,6.11,0,0,0-.636,2.092,22.616,22.616,0,0,0-.212,3.456v2.274h4.5v2.865h-4.5v17.006a14.526,14.526,0,0,1,4.072,1.091v1.773H89.921v-1.773a7.993,7.993,0,0,1,2.8-1.091v-17.006H89.5V-757.5a11.344,11.344,0,0,1,3.224-1.5v-1.591a12.716,12.716,0,0,1,.721-4.638,7.208,7.208,0,0,1,2.036-2.91,7.016,7.016,0,0,1,2.969-1.5A16.071,16.071,0,0,1,102.137-770.048Zm21.972,29.465.806.909a5.82,5.82,0,0,1-1.1,1.591,7.81,7.81,0,0,1-1.824,1.41,11.7,11.7,0,0,1-2.5,1,12.122,12.122,0,0,1-3.054.364,12.432,12.432,0,0,1-4.666-.819,9.241,9.241,0,0,1-3.393-2.41,11.117,11.117,0,0,1-2.078-3.774,16.511,16.511,0,0,1-.679-4.911q0-5.82,2.842-8.867a10.26,10.26,0,0,1,7.89-3.047,12.4,12.4,0,0,1,4.03.637,6.858,6.858,0,0,1,3.139,2.092,8.044,8.044,0,0,1,1.739,3.82,15.842,15.842,0,0,1-.042,5.775H112.19a9.306,9.306,0,0,0,1.7,5.729,5.958,5.958,0,0,0,4.963,2.137,9.826,9.826,0,0,0,2.884-.455A6.455,6.455,0,0,0,124.11-740.583Zm-7.932-15.96a3.553,3.553,0,0,0-1.527.318,2.912,2.912,0,0,0-1.145,1.182,7.854,7.854,0,0,0-.764,2.273,25.006,25.006,0,0,0-.424,3.592h6.829a13.617,13.617,0,0,0-.382-5.457A2.563,2.563,0,0,0,116.178-756.543Zm43.774,18.961v1.728H145.361v-1.728q.848-.364,1.909-.727a11.9,11.9,0,0,1,2.206-.591v-25.827h-4.92l-2.715,7.776H140.1q-.17-.909-.339-2.319t-.3-2.91q-.127-1.5-.212-2.956-.085-1.5-.085-2.546h27.02q0,1.091-.085,2.546t-.212,2.956q-.127,1.5-.3,2.91-.17,1.364-.339,2.319h-1.782l-2.715-7.776h-4.92V-738.9q1.1.227,2.163.546A10,10,0,0,1,159.952-737.582Zm24.984-15.778h-5.811a5.968,5.968,0,0,0-1.188.909,5.582,5.582,0,0,0-1.23,2.092v11.641a8.494,8.494,0,0,1,1.7.364,6.826,6.826,0,0,1,1.7.727v1.773H167.8v-1.773a7.514,7.514,0,0,1,1.442-.682q.679-.227,1.357-.409v-16.642l-2.8-.364V-757.5a10.759,10.759,0,0,1,1.654-.591q1.018-.273,2.078-.455,1.06-.227,2.036-.364l1.7-.227h1.442v6.048h.17a11.555,11.555,0,0,1,.976-2.092,11.617,11.617,0,0,1,1.569-2,7.583,7.583,0,0,1,1.951-1.455,4.37,4.37,0,0,1,2.206-.5,5.833,5.833,0,0,1,.806,1.819q.339,1.137.551,2.183Zm20.106,10.913v1.728q.042.727.127,1.546l2.927.455v1.591a8.043,8.043,0,0,1-1.4.546q-.848.273-1.824.546-.933.227-1.866.409-.933.136-1.654.227h-1.442a7.066,7.066,0,0,1-.509-2.092q-.085-1.046-.127-2.546h-.212a6.3,6.3,0,0,1-.721,1.773,6.39,6.39,0,0,1-1.315,1.5,6.442,6.442,0,0,1-1.824,1.046,6.552,6.552,0,0,1-2.375.409,7.177,7.177,0,0,1-2.587-.455,6.441,6.441,0,0,1-2.078-1.273,5.9,5.9,0,0,1-1.4-1.955,6.6,6.6,0,0,1-.509-2.637,6.967,6.967,0,0,1,.721-3.365,5.348,5.348,0,0,1,2.248-2.137,12.681,12.681,0,0,1,3.987-1.273,54.084,54.084,0,0,1,5.938-.591,14.866,14.866,0,0,0-.3-5.729,2.625,2.625,0,0,0-2.757-1.819,6.283,6.283,0,0,0-2.418.455l-1.994,5.456h-1.866q-.339-.546-.679-1.228-.3-.727-.594-1.5-.255-.818-.467-1.637-.17-.819-.255-1.591a12.422,12.422,0,0,1,4.157-1.864,20.73,20.73,0,0,1,5.387-.682,11.084,11.084,0,0,1,3.945.591A5.423,5.423,0,0,1,203.684-757a5.158,5.158,0,0,1,1.23,2.274,11.28,11.28,0,0,1,.339,2.819q0,2.728-.127,4.956Q205.041-744.766,205.041-742.447Zm-9.544,3.5a3.029,3.029,0,0,0,1.527-.364,3.931,3.931,0,0,0,1.06-.864,3.158,3.158,0,0,0,.679-1.091,8.48,8.48,0,0,0,.382-1.046v-4.547a22.042,22.042,0,0,0-3.266.273,4.631,4.631,0,0,0-1.994.773,2.683,2.683,0,0,0-1.018,1.319,6.173,6.173,0,0,0-.255,1.91,4.2,4.2,0,0,0,.764,2.683A2.564,2.564,0,0,0,195.5-738.946Zm26.68,3.092-3.139.546-8.483-20.416a12.211,12.211,0,0,1-2.248-1.091v-1.773h11.156v1.728q-.551.318-1.145.637a8.947,8.947,0,0,1-1.273.5l3.945,11.641.806,3.047h.085l.679-3.092,3.605-11.6a8,8,0,0,1-1.273-.455,7.673,7.673,0,0,1-1.06-.637v-1.773h8.186v1.773a5.152,5.152,0,0,1-1.06.591,10.317,10.317,0,0,1-1.357.5Zm29.225-4.729.806.909a5.82,5.82,0,0,1-1.1,1.591,7.809,7.809,0,0,1-1.824,1.41,11.7,11.7,0,0,1-2.5,1,12.122,12.122,0,0,1-3.054.364,12.432,12.432,0,0,1-4.666-.819,9.241,9.241,0,0,1-3.393-2.41,11.117,11.117,0,0,1-2.078-3.774,16.511,16.511,0,0,1-.679-4.911q0-5.82,2.842-8.867a10.26,10.26,0,0,1,7.89-3.047,12.4,12.4,0,0,1,4.03.637,6.858,6.858,0,0,1,3.139,2.092,8.044,8.044,0,0,1,1.739,3.82,15.841,15.841,0,0,1-.042,5.775H239.484a9.306,9.306,0,0,0,1.7,5.729,5.958,5.958,0,0,0,4.963,2.137,9.826,9.826,0,0,0,2.884-.455A6.455,6.455,0,0,0,251.4-740.583Zm-7.932-15.96a3.553,3.553,0,0,0-1.527.318,2.912,2.912,0,0,0-1.145,1.182,7.854,7.854,0,0,0-.764,2.273,25.017,25.017,0,0,0-.424,3.592h6.829a13.616,13.616,0,0,0-.382-5.457A2.563,2.563,0,0,0,243.471-756.543Zm23.923,18.916v1.773H255.687v-1.773a13.363,13.363,0,0,1,2.8-1.091v-27.555l-3.224-.364v-1.773a9.083,9.083,0,0,1,1.527-.546,19.512,19.512,0,0,1,2.078-.455q1.145-.227,2.248-.364,1.145-.182,2.036-.273H264.6v31.329A13.362,13.362,0,0,1,267.395-737.627Zm13.277-3.183a2.9,2.9,0,0,0-.806-2.046,8.5,8.5,0,0,0-1.951-1.591q-1.145-.728-2.545-1.455a16.465,16.465,0,0,1-2.545-1.682,9.946,9.946,0,0,1-1.951-2.319,6.349,6.349,0,0,1-.763-3.229,5.052,5.052,0,0,1,.594-2.455,5.658,5.658,0,0,1,1.612-1.91,7.379,7.379,0,0,1,2.418-1.182,10.244,10.244,0,0,1,3.1-.455,20.669,20.669,0,0,1,4.242.409,14.624,14.624,0,0,1,3.478,1.046,18.163,18.163,0,0,1-.679,3.137q-.509,1.637-.976,3h-1.442l-1.782-4.638a3.235,3.235,0,0,0-1.06-.273,7.591,7.591,0,0,0-1.23-.091,2.391,2.391,0,0,0-1.951.818,2.711,2.711,0,0,0-.636,1.773,2.93,2.93,0,0,0,.764,2,11,11,0,0,0,1.951,1.546q1.188.727,2.545,1.455a14.138,14.138,0,0,1,2.545,1.682,7.74,7.74,0,0,1,1.951,2.183,5.578,5.578,0,0,1,.806,3.047,5.907,5.907,0,0,1-2.375,4.956,10.392,10.392,0,0,1-6.363,1.773,20.394,20.394,0,0,1-4.2-.455,14.532,14.532,0,0,1-3.733-1.273,10.961,10.961,0,0,1,.721-3.319,23.845,23.845,0,0,1,1.357-3h1.442l2.078,4.956a2.226,2.226,0,0,0,1.018.455q.594.046,1.1.045a3.632,3.632,0,0,0,2.248-.773A2.534,2.534,0,0,0,280.671-740.81Z" transform="translate(-43.008 770.048)"/>
        </g>
      </g>
    </g>
  </g>
</svg>
